<svg width="640" height="360" viewBox="0 0 640 360" fill="none" xmlns="http://www.w3.org/2000/svg">
  <defs>
    <linearGradient id="bg1" x1="0" y1="0" x2="1" y2="1">
      <stop offset="0" stop-color="#1b2a5c"/>
      <stop offset="1" stop-color="#0b1220"/>
    </linearGradient>
    <linearGradient id="accent1" x1="0" y1="0" x2="1" y2="0">
      <stop offset="0" stop-color="#4b76ff" stop-opacity="0.9"/>
      <stop offset="1" stop-color="#9fdcff" stop-opacity="0.9"/>
    </linearGradient>
    <pattern id="grid1" width="40" height="40" patternUnits="userSpaceOnUse">
      <path d="M40 0H0V40" fill="none" stroke="#24314a" stroke-width="1"/>
    </pattern>
  </defs>
  <rect width="640" height="360" rx="24" fill="url(#bg1)"/>
  <rect width="640" height="360" fill="url(#grid1)" opacity="0.5"/>
  <rect x="32" y="32" width="260" height="110" rx="16" fill="#121a2b" stroke="#2b3b5a"/>
  <rect x="320" y="32" width="288" height="60" rx="16" fill="#121a2b" stroke="#2b3b5a"/>
  <rect x="320" y="104" width="288" height="38" rx="14" fill="#0f1626" stroke="#2b3b5a"/>
  <rect x="32" y="166" width="576" height="140" rx="18" fill="#0f1729" stroke="#2b3b5a"/>
  <rect x="56" y="192" width="220" height="12" rx="6" fill="url(#accent1)"/>
  <rect x="56" y="214" width="180" height="8" rx="4" fill="#2d3f62"/>
  <rect x="56" y="236" width="260" height="8" rx="4" fill="#2d3f62"/>
  <rect x="56" y="258" width="200" height="8" rx="4" fill="#2d3f62"/>
  <circle cx="560" cy="230" r="46" fill="#1a2b4a" stroke="#2b3b5a"/>
  <path d="M520 230H600" stroke="#4b76ff" stroke-width="6" stroke-linecap="round"/>
  <path d="M540 210H590" stroke="#6fd2ff" stroke-width="6" stroke-linecap="round"/>
</svg>
