<svg width="640" height="360" viewBox="0 0 640 360" fill="none" xmlns="http://www.w3.org/2000/svg">
  <defs>
    <linearGradient id="bg2" x1="0" y1="0" x2="1" y2="1">
      <stop offset="0" stop-color="#13234a"/>
      <stop offset="1" stop-color="#0a0f1c"/>
    </linearGradient>
    <linearGradient id="accent2" x1="0" y1="0" x2="1" y2="0">
      <stop offset="0" stop-color="#6fd2ff" stop-opacity="0.9"/>
      <stop offset="1" stop-color="#4b76ff" stop-opacity="0.9"/>
    </linearGradient>
    <pattern id="dots2" width="36" height="36" patternUnits="userSpaceOnUse">
      <circle cx="2" cy="2" r="1.5" fill="#27344e"/>
    </pattern>
  </defs>
  <rect width="640" height="360" rx="24" fill="url(#bg2)"/>
  <rect width="640" height="360" fill="url(#dots2)" opacity="0.5"/>
  <rect x="40" y="44" width="560" height="72" rx="18" fill="#0f1626" stroke="#2b3b5a"/>
  <rect x="60" y="66" width="200" height="10" rx="5" fill="url(#accent2)"/>
  <rect x="60" y="86" width="140" height="8" rx="4" fill="#2d3f62"/>
  <rect x="40" y="132" width="260" height="184" rx="18" fill="#0f1729" stroke="#2b3b5a"/>
  <rect x="320" y="132" width="280" height="88" rx="18" fill="#0f1729" stroke="#2b3b5a"/>
  <rect x="320" y="236" width="280" height="80" rx="18" fill="#0f1729" stroke="#2b3b5a"/>
  <rect x="64" y="156" width="180" height="10" rx="5" fill="#6fd2ff"/>
  <rect x="64" y="176" width="140" height="8" rx="4" fill="#2d3f62"/>
  <rect x="64" y="196" width="190" height="8" rx="4" fill="#2d3f62"/>
  <rect x="340" y="156" width="200" height="10" rx="5" fill="#4b76ff"/>
  <rect x="340" y="176" width="140" height="8" rx="4" fill="#2d3f62"/>
</svg>
