<svg width="640" height="360" viewBox="0 0 640 360" fill="none" xmlns="http://www.w3.org/2000/svg">
  <defs>
    <linearGradient id="bg3" x1="0" y1="0" x2="1" y2="1">
      <stop offset="0" stop-color="#0f1a36"/>
      <stop offset="1" stop-color="#0a0f1a"/>
    </linearGradient>
    <linearGradient id="accent3" x1="0" y1="0" x2="1" y2="0">
      <stop offset="0" stop-color="#9fdcff" stop-opacity="0.9"/>
      <stop offset="1" stop-color="#4b76ff" stop-opacity="0.9"/>
    </linearGradient>
    <pattern id="grid3" width="32" height="32" patternUnits="userSpaceOnUse">
      <path d="M32 0H0V32" fill="none" stroke="#24314a" stroke-width="1"/>
    </pattern>
  </defs>
  <rect width="640" height="360" rx="24" fill="url(#bg3)"/>
  <rect width="640" height="360" fill="url(#grid3)" opacity="0.45"/>
  <rect x="36" y="40" width="568" height="88" rx="18" fill="#0f1729" stroke="#2b3b5a"/>
  <rect x="64" y="64" width="160" height="12" rx="6" fill="url(#accent3)"/>
  <rect x="64" y="86" width="120" height="8" rx="4" fill="#2d3f62"/>
  <rect x="36" y="148" width="260" height="172" rx="18" fill="#0f1729" stroke="#2b3b5a"/>
  <rect x="316" y="148" width="288" height="172" rx="18" fill="#0f1729" stroke="#2b3b5a"/>
  <rect x="64" y="178" width="200" height="10" rx="5" fill="#6fd2ff"/>
  <rect x="64" y="198" width="150" height="8" rx="4" fill="#2d3f62"/>
  <rect x="344" y="178" width="200" height="10" rx="5" fill="#4b76ff"/>
  <rect x="344" y="198" width="150" height="8" rx="4" fill="#2d3f62"/>
  <rect x="344" y="218" width="180" height="8" rx="4" fill="#2d3f62"/>
</svg>
